PathFileType	4	(X/Y/Z)	RBDS001\RBDS001runT25.trc																																																																																																	
DataRate	CameraRate	NumFrames	NumMarkers	Units	OrigDataRate	OrigDataStartFrame	OrigNumFrames																																																																																													
150	150	5	33	mm	150	2250	4500																																																																																													
Frame#	Time	L.ASIS			L.Heel.Bottom			L.Heel.Lateral			L.Heel.Top			L.Iliac.Crest			L.MT1			L.MT5			L.PSIS			L.Shank.Bottom.Lateral			L.Shank.Bottom.Medial			L.Shank.Top.Lateral			L.Shank.Top.Medial			L.Thigh.Bottom.Lateral			L.Thigh.Bottom.Medial			L.Thigh.Top.Lateral			L.Thigh.Top.Medial			R.ASIS			R.ASY			R.Heel.Bottom			R.Heel.Lateral			R.Heel.Top			R.Iliac.Crest			R.MT5			R.MT1			R.PSIS			R.Shank.Bottom.Lateral			R.Shank.Bottom.Medial			R.Shank.Top.Lateral			R.Shank.Top.Medial			R.Thigh.Bottom.Lateral			R.Thigh.Bottom.Medial			R.Thigh.Top.Lateral			R.Thigh.Top.Medial		
		X1	Y1	Z1	X2	Y2	Z2	X3	Y3	Z3	X4	Y4	Z4	X5	Y5	Z5	X6	Y6	Z6	X7	Y7	Z7	X8	Y8	Z8	X9	Y9	Z9	X10	Y10	Z10	X11	Y11	Z11	X12	Y12	Z12	X13	Y13	Z13	X14	Y14	Z14	X15	Y15	Z15	X16	Y16	Z16	X17	Y17	Z17	X18	Y18	Z18	X19	Y19	Z19	X20	Y20	Z20	X21	Y21	Z21	X22	Y22	Z22	X23	Y23	Z23	X24	Y24	Z24	X25	Y25	Z25	X26	Y26	Z26	X27	Y27	Z27	X28	Y28	Z28	X29	Y29	Z29	X30	Y30	Z30	X31	Y31	Z31	X32	Y32	Z32	X33	Y33	Z33
																																																																																																				
2251	15	2341.892742	1050.088942	941.0096858	2312.265446	44.40369582	1063.222916	2330.768352	53.30028002	1015.878129	2321.254095	90.80078852	1056.607885	2282.054523	1117.875907	908.2336964	2538.307511	60.04188671	1054.053056	2483.585103	46.14548347	960.8915406	2174.090045	1087.463911	1010.837891	2379.180374	184.65674	972.904181	2342.240279	187.4600117	1008.403311	2369.520694	261.7153502	951.2421326	2331.839285	268.8048973	988.8497532	2339.041009	647.4738822	903.6174861	2291.101113	632.4273275	956.5860816	2289.976283	744.7077543	889.4364965	2245.916308	732.2733473	940.5796767	2341.209498	1032.139734	1148.959619	78333940.01	64771867.37	3266792304	1740.046021	340.515759	1107.617991	1763.767015	313.9600097	1149.958304	1788.571003	346.4237534	1110.500327	2292.000767	1111.399634	1177.929091	1818.557827	152.5239271	1162.858903	1840.093164	144.929076	1055.64199	2179.957152	1086.196491	1087.38116	1897.520343	338.3535814	1159.074146	1877.107956	374.8826713	1124.136506	1960.961499	387.8685668	1172.036123	1940.575062	423.1468052	1136.511441	2217.124238	610.5299539	1181.488082	2164.060595	616.0653419	1129.9002	2210.253621	719.6640989	1196.67846	2158.462071	724.5875724	1148.817447
2252	15.00666667	2340.705433	1045.081422	940.190534	2295.362594	41.50203798	1064.474302	2314.164322	52.09580179	1017.613962	2304.911869	88.13825003	1059.733141	2280.616865	1112.259258	908.1404211	2522.243998	55.93992621	1057.774052	2467.455235	46.10768595	963.1777126	2172.628312	1081.348418	1011.221205	2367.830447	181.2995158	976.4782198	2330.029875	185.7104649	1010.911355	2361.312671	258.5459659	954.01173	2323.035895	267.2011417	990.710648	2339.303743	642.786911	904.8635091	2291.638784	627.9092668	958.119622	2289.658327	739.7603851	890.2735351	2245.923106	727.4212236	941.7093487	2340.433521	1026.483609	1148.334237	78502779.5	64912215.01	3273864872	1744.954732	343.8348291	1108.365818	1768.090013	317.4274622	1151.153379	1793.516767	349.3075731	1111.608482	2291.508294	1105.338663	1178.029905	1821.812018	155.5865219	1166.022137	1844.181542	146.8969172	1059.219391	2178.702426	1079.76094	1087.634067	1903.16425	339.6452715	1160.77618	1883.855469	376.3919547	1125.5136	1967.771252	387.595824	1173.625352	1948.466511	423.1047003	1137.726637	2223.901612	603.4145559	1182.415204	2171.216618	607.3887027	1130.258643	2214.403864	712.4732272	1196.992185	2162.943145	715.8413994	1148.627124
2253	15.01333333	2339.339368	1039.846465	939.4116952	2278.15337	38.89711045	1065.632295	2297.189229	51.11179583	1019.244608	2288.095731	85.74024835	1062.643991	2279.238699	1106.442614	908.0343326	2505.751005	52.87886379	1060.740331	2450.824849	46.364692	964.9866906	2170.982545	1075.080707	1011.488412	2355.95008	178.2204778	979.9312379	2317.383869	184.2665598	1013.30562	2352.599615	255.5484185	956.7140638	2313.824772	265.8082336	992.5150875	2339.010333	637.9208848	906.2022193	2291.780834	623.376461	959.9280874	2288.876044	734.6829081	891.2203364	2245.595495	722.5912065	943.0851974	2339.445688	1020.692861	1147.759934	78671861.42	65052765.25	3280947640	1750.687063	346.6902611	1109.167821	1773.353468	320.5628852	1152.409559	1799.280401	351.8327225	1112.680914	2290.838244	1099.108372	1178.10406	1826.282312	158.4577158	1169.344812	1849.297175	148.550416	1062.917102	2177.206542	1073.161887	1087.767036	1909.635648	340.6802565	1162.465783	1891.355613	377.6284649	1126.928351	1975.310576	387.1248039	1175.201993	1957.019728	422.8439135	1138.98041	2230.963988	596.3453718	1183.360594	2178.570955	598.7444557	1130.760949	2218.743645	705.259422	1197.357725	2167.550623	707.0455624	1148.616645
2254	15.02	2337.784927	1034.484316	938.7070251	2260.881173	36.70989303	1066.696616	2280.087447	50.37504011	1020.743273	2271.07788	83.71429685	1065.25007	2277.890627	1100.517583	907.9299178	2489.069568	50.78213011	1062.924754	2433.931298	46.79327108	966.3343727	2169.145369	1068.765128	1011.669706	2343.709953	175.4606482	983.1372308	2304.504192	183.1330772	1015.495256	2343.481833	252.7551445	959.2430814	2304.329946	264.6237626	994.1817805	2338.108883	632.9789242	907.5888282	2291.448606	618.9098552	961.9349785	2287.607032	729.5908058	892.2546746	2244.881336	717.8829524	944.6563572	2338.229095	1014.855754	1147.275847	78841185.96	65193518.23	3288040617	1757.182847	349.0397141	1110.073156	1779.550913	323.3375802	1153.75077	1805.799421	353.9861613	1113.722949	2289.931165	1092.791407	1178.176796	1832.042488	161.158092	1172.805142	1855.433325	149.9148683	1066.681685	2175.463742	1066.489967	1087.809215	1916.91649	341.4713202	1164.120053	1899.564069	378.6203114	1128.376899	1983.559249	386.4907952	1176.74201	1966.19066	422.4128783	1140.268726	2238.33456	589.4359873	1184.313898	2186.136686	590.2580338	1131.411675	2223.308379	698.1221158	1197.796817	2172.308962	698.3155381	1148.825376
2255	15.02666667	2336.041112	1029.111051	938.1086446	2243.71409	35.02152494	1067.656314	2263.034615	49.8978427	1022.077555	2254.065943	82.13465803	1067.478907	2276.522877	1094.588448	907.8445601	2472.374085	49.4951445	1064.365957	2416.958748	47.28109018	967.2643411	2167.118747	1062.517445	1011.81101	2331.24669	173.042305	985.9788983	2291.545959	182.3030393	1017.390182	2334.04219	250.1886255	961.4913581	2294.645352	263.63971	995.6209201	2336.592	628.0684557	908.9508092	2290.591648	614.5770886	964.0183965	2285.860768	724.5993676	893.3266674	2243.751272	713.379445	946.3337798	2336.775247	1009.062	1146.915365	79010753.28	65334474.1	3295143808	1764.38694	350.8521785	1111.11833	1786.662742	325.722292	1155.190594	1813.015614	355.7566083	1114.742345	2288.740755	1086.478591	1178.277743	1839.131465	163.6912849	1176.36845	1862.580252	151.0111277	1070.460715	2173.482066	1059.847309	1087.804974	1924.980941	342.0325775	1165.720651	1908.43407	379.3911944	1129.851306	1992.488887	385.7317899	1178.224682	1975.930136	421.8581719	1141.582965	2246.02807	582.8092404	1185.263024	2193.928456	582.0604969	1132.203078	2228.125852	691.1709524	1198.327021	2177.243778	689.7730613	1149.275908
